<svg width="36" height="36" viewBox="0 0 36 36" fill="none" xmlns="http://www.w3.org/2000/svg">
<rect width="36" height="36" rx="8" fill="#EB5757"/>
<path d="M28.3125 23.75H7.6875C7.5013 23.75 7.34017 23.682 7.2041 23.5459C7.06803 23.4098 7 23.2487 7 23.0625C7 20.3698 7.83431 18.0745 9.50293 16.1768C11.1715 14.279 13.3164 13.1367 15.9375 12.75C16.1237 12.75 16.2848 12.682 16.4209 12.5459C16.557 12.4098 16.625 12.2487 16.625 12.0625C16.625 11.8763 16.557 11.7152 16.4209 11.5791C16.2848 11.443 16.1237 11.375 15.9375 11.375C15.7513 11.375 15.5902 11.307 15.4541 11.1709C15.318 11.0348 15.25 10.8737 15.25 10.6875C15.25 10.5013 15.318 10.3402 15.4541 10.2041C15.5902 10.068 15.7513 10 15.9375 10H20.0625C20.2487 10 20.4098 10.068 20.5459 10.2041C20.682 10.3402 20.75 10.5013 20.75 10.6875C20.75 10.8737 20.682 11.0348 20.5459 11.1709C20.4098 11.307 20.2487 11.375 20.0625 11.375C19.8763 11.375 19.7152 11.443 19.5791 11.5791C19.443 11.7152 19.375 11.8763 19.375 12.0625C19.375 12.2487 19.443 12.4098 19.5791 12.5459C19.7152 12.682 19.8763 12.75 20.0625 12.75C22.6836 13.1367 24.8285 14.279 26.4971 16.1768C28.1657 18.0745 29 20.3698 29 23.0625C29 23.2487 28.932 23.4098 28.7959 23.5459C28.6598 23.682 28.4987 23.75 28.3125 23.75ZM7.6875 25.125H28.3125C28.4987 25.125 28.6598 25.193 28.7959 25.3291C28.932 25.4652 29 25.6263 29 25.8125C29 25.9987 28.932 26.1598 28.7959 26.2959C28.6598 26.432 28.4987 26.5 28.3125 26.5H7.6875C7.5013 26.5 7.34017 26.432 7.2041 26.2959C7.06803 26.1598 7 25.9987 7 25.8125C7 25.6263 7.06803 25.4652 7.2041 25.3291C7.34017 25.193 7.5013 25.125 7.6875 25.125Z" fill="white"/>
</svg>
