<svg width="13" height="12" viewBox="0 0 13 12" fill="none" xmlns="http://www.w3.org/2000/svg">
<path d="M6.13678 0.787466C6.27974 0.477517 6.72026 0.477517 6.86322 0.787466L8.24011 3.77255C8.29838 3.89887 8.41809 3.98585 8.55624 4.00223L11.8207 4.38928C12.1597 4.42947 12.2958 4.84843 12.0452 5.08017L9.63168 7.31211C9.52955 7.40657 9.48382 7.5473 9.51093 7.68374L10.1516 10.908C10.2181 11.2428 9.86174 11.5018 9.56389 11.335L6.69538 9.72936C6.57399 9.66142 6.42601 9.66142 6.30462 9.72936L3.43611 11.335C3.13827 11.5018 2.78188 11.2428 2.8484 10.908L3.48907 7.68374C3.51618 7.5473 3.47045 7.40657 3.36832 7.31211L0.954815 5.08017C0.704215 4.84843 0.840342 4.42947 1.1793 4.38928L4.44376 4.00223C4.58191 3.98585 4.70162 3.89887 4.75989 3.77255L6.13678 0.787466Z" fill="#FFD875"/>
</svg>
