<svg width="36" height="36" viewBox="0 0 36 36" fill="none" xmlns="http://www.w3.org/2000/svg">
<g clip-path="url(#clip0_2_187)">
<rect width="36" height="36" rx="8" fill="#EACB8E"/>
<path d="M28.2889 14.3947L21.6938 13.4366L18.7455 7.46218C18.665 7.2986 18.5325 7.16618 18.3689 7.08569C17.9585 6.88317 17.4598 7.05194 17.2546 7.46218L14.3063 13.4366L7.71117 14.3947C7.52934 14.4207 7.3631 14.5063 7.23582 14.6362C7.08194 14.7943 6.99715 15.0069 7.00007 15.2275C7.003 15.448 7.09339 15.6584 7.2514 15.8124L12.0231 20.4626L10.8958 27.029C10.8693 27.1818 10.8862 27.3389 10.9446 27.4825C11.0029 27.6261 11.1003 27.7505 11.2258 27.8416C11.3513 27.9327 11.4998 27.9869 11.6545 27.9979C11.8092 28.0089 11.9639 27.9764 12.101 27.904L18.0001 24.8039L23.8991 27.904C24.0601 27.9897 24.2472 28.0183 24.4264 27.9871C24.8784 27.9092 25.1823 27.4808 25.1043 27.029L23.977 20.4626L28.7487 15.8124C28.8786 15.6851 28.9643 15.519 28.9903 15.3372C29.0604 14.8828 28.7435 14.4622 28.2889 14.3947Z" fill="white"/>
</g>
<defs>
<clipPath id="clip0_2_187">
<rect width="36" height="36" fill="white"/>
</clipPath>
</defs>
</svg>
