<svg width="36" height="36" viewBox="0 0 36 36" fill="none" xmlns="http://www.w3.org/2000/svg">
<rect width="36" height="36" rx="8" fill="#8DE8C7"/>
<path d="M10.1499 11.1972C10.5989 11.1972 11.0427 11.317 11.4351 11.5451C11.5646 11.6207 12.1393 12.0683 12.4189 12.5672C12.5138 12.7365 12.5778 12.9034 12.624 13.0618C12.9814 13.2085 13.3415 13.2651 13.3688 13.269V13.8446C13.4567 13.933 13.54 14.0256 13.6117 14.1267C13.8756 14.4976 13.996 14.8561 14.0359 14.9961C14.0776 14.9979 14.1168 15.0007 14.1549 15.0035V14.4357L15.2959 12.8281C15.6081 12.6153 15.8727 12.3384 16.0757 12.017C16.3417 12.15 16.6399 12.2264 16.9567 12.2264C17.0085 12.2264 17.0575 12.2172 17.1082 12.2129C17.3273 12.0485 17.5625 11.9036 17.8181 11.7929C17.7512 11.3004 17.7204 10.3458 18.2087 9.28405C18.2531 9.18682 18.3767 8.96974 18.4376 8.86968C18.1446 8.54052 17.747 8.30894 17.2962 8.23081C17.3329 8.07701 17.355 7.91755 17.355 7.75244C17.355 6.64015 16.4628 5.73858 15.3621 5.73858C15.2739 5.73858 15.1881 5.74636 15.1034 5.75767C14.8238 5.30441 14.3299 5 13.7619 5C12.8872 5 12.1781 5.71631 12.1781 6.59949C12.1781 6.61823 12.1827 6.63556 12.1834 6.65394C11.4974 6.82931 10.9874 7.45157 10.9874 8.19934C10.9874 8.21419 10.9913 8.22868 10.9923 8.24353C10.8586 8.2149 10.7204 8.19934 10.5783 8.19934C9.47716 8.19934 8.58466 9.10126 8.58466 10.2132C8.58466 10.688 8.74846 11.1229 9.02041 11.4666C9.42221 11.2725 9.91431 11.1972 10.1499 11.1972ZM14.1553 13.269C14.2946 13.2488 14.4307 13.2206 14.562 13.1803L14.1553 13.7527V13.269Z" fill="white"/>
<path d="M13.526 16.0989C13.6383 15.9632 13.7514 15.838 13.8623 15.7256C13.8707 15.7171 13.8795 15.7083 13.8879 15.6998C13.8819 15.6998 13.8767 15.6994 13.8707 15.6994C13.7286 15.6994 13.5753 15.7114 13.4434 15.7468C13.4402 15.7475 13.436 15.7479 13.4329 15.7486C13.4332 15.7337 13.436 15.7196 13.4371 15.7051C13.4371 15.7023 13.4378 15.6994 13.4378 15.6966C13.4378 15.5276 13.4098 15.3667 13.3685 15.2112C13.3289 15.0623 13.2246 14.7943 13.043 14.5394C13.0356 14.5292 13.0258 14.5214 13.0185 14.5111C12.9205 14.3803 12.8008 14.2682 12.6685 14.1717C12.4763 14.0317 12.2572 13.9249 12.0206 13.8645C12.021 13.8532 12.0339 13.7255 12.0115 13.5413C11.9919 13.3812 11.9426 13.1786 11.8362 12.9696C11.8271 12.9516 11.8201 12.9336 11.8099 12.9155C11.6122 12.563 11.146 12.1928 11.0844 12.1568C10.8089 11.9966 10.4908 11.904 10.1499 11.904C9.96753 11.904 9.53668 11.9793 9.25843 12.1359C9.24757 12.1423 9.23777 12.1501 9.22692 12.1564C9.12157 12.2183 9.02427 12.2901 8.93327 12.3693C8.78907 12.4944 8.66167 12.638 8.56017 12.8024C8.45972 12.7889 8.35787 12.7801 8.25357 12.7801C6.94841 12.7801 5.89071 13.8486 5.89071 15.167C5.89071 15.3625 5.91696 15.552 5.96071 15.7341C4.8477 15.9271 4 16.904 4 18.0835C4 19.4019 5.05806 20.47 6.36321 20.47C6.73876 20.47 7.09261 20.3795 7.40762 20.2221C7.64842 20.6019 7.96167 20.9307 8.33127 21.1827L9.68403 23.0888V26.8085H10.6161V21.7053C11.4603 21.583 12.1981 21.1347 12.7024 20.4894C12.5166 19.998 12.4168 19.485 12.4168 18.9578C12.4168 18.1641 12.6685 17.4902 12.7462 17.3007C12.8865 16.9623 13.1966 16.4974 13.526 16.0989ZM9.68403 22.2798L9.20172 21.6003C9.35748 21.648 9.51918 21.6816 9.68403 21.7053V22.2798Z" fill="white"/>
<path d="M28.4343 14.3347C28.3846 14.3347 28.3366 14.3407 28.2869 14.3424C28.3818 14.0571 28.4343 13.7534 28.4343 13.4366C28.4343 11.8555 27.1662 10.5746 25.6021 10.5746C25.5835 10.5746 25.5664 10.5771 25.5482 10.5771C25.2654 8.87362 23.8034 7.57465 22.0362 7.57465C20.9355 7.57465 19.9537 8.08024 19.3003 8.87221C19.2191 8.9705 19.1442 9.07409 19.0735 9.18122C19.0661 9.19253 19.057 9.20243 19.05 9.21339C19.0136 9.26961 18.875 9.51391 18.8446 9.58038C18.2769 10.8147 18.5366 11.846 18.5499 11.9103C18.5527 11.9231 18.5569 11.9351 18.5593 11.9478C18.5824 12.0571 18.608 12.1652 18.6409 12.2702C18.1617 12.3682 17.727 12.5884 17.3686 12.8971C16.7596 13.4218 16.3729 14.2017 16.3729 15.074C16.3729 15.174 16.3781 15.2727 16.3879 15.3706C16.305 15.3777 16.2003 15.3943 16.088 15.4162C15.7845 15.4756 15.4023 15.5866 15.0632 15.7404C14.989 15.774 14.9183 15.8097 14.85 15.8475C14.7552 15.8995 14.6649 15.954 14.5875 16.013C14.5518 16.0406 14.513 16.0763 14.4741 16.1109C14.0783 16.468 13.5554 17.178 13.3919 17.5725C13.3699 17.6266 13.1165 18.2457 13.1165 18.9567C13.1165 19.4754 13.2267 19.9668 13.422 20.4123C13.4332 20.4381 13.4626 20.4965 13.4941 20.5587C13.5386 20.6464 13.5886 20.7422 13.6089 20.7768C13.7762 21.0639 13.9838 21.3227 14.22 21.5518C14.8598 22.1727 15.7243 22.5577 16.6816 22.5577C17.6248 22.5577 18.4799 22.1854 19.1176 21.5805C19.756 22.0585 20.5109 22.3823 21.3334 22.5015V30.2002H22.7398V24.5899L24.781 21.7138C25.2454 21.3973 25.649 20.9992 25.9822 20.5453C26.6209 21.159 27.483 21.5377 28.4343 21.5377C30.4034 21.5377 32.0001 19.9251 32.0001 17.9364C32.0001 15.9469 30.4034 14.3347 28.4343 14.3347ZM22.7401 23.3695V22.5029C22.989 22.4668 23.2326 22.4166 23.4681 22.3442L22.7401 23.3695Z" fill="white"/>
</svg>
